<svg width="50" height="50" viewBox="0 0 50 50" fill="none" xmlns="http://www.w3.org/2000/svg">
<circle cx="25" cy="25" r="25" fill="black" fill-opacity="0.03"/>
<path d="M36.5337 13.0092C34.8679 13.6537 32.3945 13.8588 28.9625 12.3605C21.5672 9.13782 18.6249 12.3605 18.6249 12.3605V10.5943C18.6249 9.67354 17.88 8.92856 16.9592 8.92856C16.0384 8.92856 15.2935 9.67354 15.2935 10.5943V39.2801C15.2935 40.2009 16.0384 40.9459 16.9592 40.9459C17.88 40.9459 18.6249 40.2009 18.6249 39.2801V27.7999C18.6249 27.7999 21.5672 24.5773 28.9625 27.7999C34.5206 30.2232 37.5633 28.1933 38.7351 27.0382C39.1076 26.6699 39.3043 26.1635 39.3043 25.6403V14.8423C39.3001 13.4194 37.8604 12.4944 36.5337 13.0092Z" fill="black" fill-opacity="0.06"/>
</svg>
