<svg width="111" height="26" viewBox="0 0 111 26" fill="none" xmlns="http://www.w3.org/2000/svg">
<path d="M72.834 6.622V6.556C72.834 6.534 72.834 6.512 72.834 6.49V6.424C72.812 6.402 72.812 6.38 72.812 6.358C72.812 6.336 72.79 6.314 72.79 6.292C72.79 6.27 72.79 6.248 72.768 6.226C72.768 6.204 72.768 6.204 72.746 6.182C72.746 6.16 72.746 6.138 72.724 6.116C72.724 6.094 72.702 6.072 72.702 6.05C72.68 6.028 72.68 6.028 72.68 6.006C72.658 5.984 72.636 5.962 72.636 5.94L72.592 5.896C72.592 5.874 72.57 5.852 72.548 5.83C72.548 5.808 72.526 5.808 72.526 5.786C72.504 5.764 72.482 5.764 72.482 5.742L72.438 5.698C72.416 5.676 72.394 5.654 72.372 5.654C72.372 5.632 72.35 5.61 72.328 5.61L72.306 5.588C72.284 5.566 72.284 5.566 72.284 5.566L72.218 5.522C72.196 5.522 72.174 5.5 72.174 5.5L72.108 5.456C72.086 5.456 72.064 5.456 72.042 5.434C72.02 5.434 71.998 5.412 71.998 5.412C71.976 5.412 71.954 5.39 71.91 5.39C71.91 5.39 71.888 5.39 71.866 5.368C71.844 5.368 71.822 5.368 71.8 5.346H71.734C71.712 5.346 71.69 5.346 71.668 5.324H71.624C71.58 5.324 71.558 5.324 71.536 5.324H71.514C71.492 5.324 71.492 5.324 71.47 5.324H71.404C71.382 5.324 71.36 5.324 71.338 5.346H71.272C71.25 5.346 71.228 5.346 71.206 5.368H71.14C71.118 5.39 71.096 5.39 71.074 5.39C71.052 5.412 71.052 5.412 71.03 5.412C71.008 5.434 70.986 5.434 70.964 5.434L70.898 5.478C70.876 5.478 70.876 5.478 70.854 5.5C70.832 5.5 70.81 5.522 70.788 5.544C70.766 5.544 70.766 5.566 70.744 5.566C70.722 5.588 70.7 5.588 70.678 5.61L70.634 5.654C70.612 5.654 70.612 5.676 70.59 5.698C70.568 5.72 70.546 5.72 70.546 5.742C70.524 5.764 70.502 5.764 70.502 5.786C70.48 5.808 70.458 5.83 70.458 5.852C70.436 5.852 70.436 5.852 70.436 5.874L65.662 12.408L60.91 5.874C60.888 5.852 60.888 5.852 60.866 5.852C60.866 5.83 60.844 5.808 60.822 5.786C60.822 5.764 60.8 5.764 60.778 5.742C60.778 5.72 60.756 5.72 60.756 5.698C60.734 5.676 60.712 5.654 60.69 5.654C60.668 5.632 60.668 5.632 60.646 5.61L60.58 5.566C60.58 5.566 60.558 5.544 60.536 5.544C60.514 5.522 60.492 5.5 60.47 5.5C60.47 5.478 60.448 5.478 60.426 5.478L60.36 5.434C60.338 5.434 60.338 5.434 60.316 5.412C60.294 5.412 60.272 5.412 60.25 5.39C60.228 5.39 60.206 5.39 60.184 5.368H60.118C60.096 5.346 60.074 5.346 60.052 5.346H59.986C59.964 5.324 59.942 5.324 59.942 5.324H59.854C59.832 5.324 59.832 5.324 59.81 5.324C59.766 5.324 59.744 5.324 59.722 5.324H59.678C59.634 5.346 59.612 5.346 59.59 5.346H59.546C59.502 5.368 59.48 5.368 59.458 5.368C59.436 5.39 59.436 5.39 59.414 5.39C59.392 5.39 59.37 5.412 59.348 5.412C59.326 5.412 59.304 5.434 59.282 5.434C59.26 5.456 59.238 5.456 59.216 5.456C59.216 5.478 59.194 5.478 59.172 5.5C59.15 5.5 59.128 5.522 59.106 5.522C59.084 5.544 59.062 5.544 59.062 5.566C59.04 5.566 59.04 5.566 59.04 5.588C59.018 5.588 59.018 5.588 58.996 5.61L58.952 5.654C58.93 5.654 58.908 5.676 58.908 5.698C58.886 5.698 58.864 5.72 58.864 5.742L58.798 5.786C58.798 5.808 58.776 5.808 58.776 5.83C58.754 5.852 58.732 5.874 58.732 5.896L58.688 5.94C58.688 5.962 58.666 5.984 58.666 6.006L58.622 6.05C58.622 6.072 58.622 6.094 58.6 6.116C58.6 6.138 58.578 6.16 58.578 6.182C58.578 6.204 58.556 6.204 58.556 6.226C58.556 6.248 58.534 6.27 58.534 6.292C58.534 6.314 58.534 6.336 58.512 6.358V6.424C58.512 6.446 58.49 6.468 58.49 6.49V6.556C58.49 6.578 58.49 6.6 58.49 6.622V6.666V20.68C58.49 21.428 59.084 22.022 59.81 22.022C60.558 22.022 61.152 21.428 61.152 20.68V10.758L64.584 15.466C64.848 15.796 65.244 16.016 65.662 16.016C66.102 16.016 66.498 15.796 66.74 15.466L70.172 10.758V20.68C70.172 21.428 70.766 22.022 71.514 22.022C72.24 22.022 72.856 21.428 72.856 20.68V6.666C72.856 6.644 72.834 6.644 72.834 6.622ZM84.6322 16.434C84.7202 16.214 84.8082 15.994 84.8082 15.796C84.8522 15.07 84.4562 14.256 84.1042 13.64C83.3122 12.32 82.0362 11.396 80.5402 11.11C80.2102 11.044 79.9022 11.022 79.5722 11.022C76.5142 11.022 74.0722 13.53 74.0722 16.544C74.0722 19.602 76.5142 22.066 79.5722 22.066C80.8262 22.066 82.5202 21.67 83.7302 20.504C84.2582 19.998 84.2802 19.14 83.7522 18.634C83.2462 18.106 82.4102 18.106 81.8822 18.612C81.3102 19.162 80.2762 19.448 79.5722 19.448C78.2082 19.448 77.0862 18.48 76.7782 17.226H83.5542C84.0822 17.226 84.4562 16.852 84.6322 16.434ZM79.5722 13.684C80.5622 13.684 81.3762 14.168 81.8162 15.004H77.1522C77.6802 14.19 78.5602 13.684 79.5722 13.684ZM92.9609 16.5L96.1069 13.222C96.6129 12.694 96.5909 11.88 96.0849 11.396C95.5569 10.89 94.7429 10.912 94.2589 11.418L91.1569 14.63L88.1209 11.462C87.6149 10.956 86.8009 10.934 86.2949 11.44C85.7669 11.924 85.7669 12.738 86.2509 13.266L89.3749 16.5L86.2729 19.712C85.7669 20.218 85.7889 21.032 86.2949 21.538C86.5589 21.78 86.8889 21.89 87.1969 21.89C87.5489 21.89 87.8789 21.758 88.1209 21.494L91.1569 18.348L94.2369 21.538C94.5009 21.802 94.8309 21.934 95.1609 21.934C95.4909 21.934 95.8209 21.824 96.0629 21.582C96.5689 21.076 96.5909 20.262 96.1069 19.756L92.9609 16.5ZM103.428 21.956C100.392 21.956 97.9061 19.492 97.9061 16.434C97.9061 13.398 100.392 10.912 103.428 10.912C106.464 10.912 108.95 13.398 108.972 16.456C108.95 19.492 106.464 21.956 103.428 21.956ZM103.428 13.618C101.866 13.618 100.612 14.872 100.612 16.434C100.612 17.996 101.866 19.25 103.428 19.25C104.99 19.25 106.244 17.996 106.244 16.434C106.244 14.872 104.99 13.618 103.428 13.618Z" fill="white"/>
<path fill-rule="evenodd" clip-rule="evenodd" d="M44.0172 15.113C43.7889 16.1947 43.2373 17.1671 42.4605 17.9214C41.4316 18.9304 39.9974 19.5554 38.4203 19.5554C37.705 19.5554 37.0306 19.4299 36.397 19.2015C35.8247 18.9899 35.2966 18.6954 34.8332 18.3217C34.8128 18.3051 34.7924 18.2919 34.772 18.2754L34.7618 18.2657C34.6937 18.219 34.629 18.1596 34.5607 18.0966C34.5266 18.0704 34.4926 18.0372 34.462 18.0074C34.4348 17.9843 34.4109 17.9611 34.3905 17.938C34.312 17.865 34.2405 17.7893 34.1724 17.7129C34.1146 17.66 34.0669 17.6071 34.0224 17.5543L33.9067 17.4118L33.8829 17.3821C33.8522 17.3427 33.825 17.3029 33.7944 17.2632L33.7638 17.23L33.7604 17.2234L32.8679 16.1618L31.0454 14.0047L32.8679 11.8414L33.7638 10.7764L33.7706 10.7698L33.8454 10.6737L33.9308 10.5648L34.0224 10.449C34.0635 10.3992 34.1078 10.3498 34.1554 10.3034C34.1554 10.2969 34.1622 10.2869 34.1758 10.2803C34.2646 10.1776 34.3633 10.0784 34.4654 9.98921C34.6631 9.80048 34.8741 9.63178 35.099 9.47623C35.1636 9.43335 35.2286 9.38703 35.3 9.34728C35.4705 9.23805 35.6475 9.13884 35.8281 9.04964C35.8554 9.03305 35.886 9.01991 35.9166 9.00676C36.0085 8.96044 36.1075 8.92069 36.2062 8.88094C36.2334 8.8678 36.264 8.85434 36.298 8.84777C36.3287 8.83118 36.3627 8.81459 36.4001 8.80489C36.4175 8.79832 36.4379 8.7883 36.4583 8.78486C36.6628 8.71225 36.8704 8.65278 37.0885 8.60302C37.5141 8.50067 37.964 8.44434 38.4203 8.44434C41.5714 8.44434 44.1363 10.935 44.1363 13.9982C44.1363 14.3788 44.0955 14.7525 44.0172 15.113ZM38.2408 4C37.2545 4 36.2996 4.13636 35.3902 4.392C34.9846 4.50418 34.5926 4.64409 34.2079 4.80076C34.131 4.83139 34.0542 4.86878 33.977 4.89941C33.7953 4.97806 33.6203 5.06317 33.449 5.15504C33.3544 5.20275 33.267 5.25046 33.1797 5.30494C33.1377 5.31881 33.0955 5.34266 33.0609 5.36619C32.9732 5.4139 32.8858 5.46516 32.7982 5.51964C32.6933 5.58444 32.5885 5.65246 32.4869 5.71725C32.4697 5.73079 32.4592 5.73756 32.4414 5.74788C32.3646 5.80236 32.2877 5.85361 32.2108 5.90809L31.8436 6.17727C31.742 6.25915 31.6511 6.33394 31.553 6.41582L31.5285 6.43613C31.4307 6.51801 31.3328 6.60312 31.2385 6.69177C30.85 7.04605 30.4898 7.43096 30.1575 7.84004L30.1261 7.88098L30 8.03056L27.8349 10.6166C26.7472 9.31874 24.5402 6.68822 24.442 6.5928C23.8826 5.92163 23.1867 5.35265 22.3786 4.92004C21.2906 4.34429 20.0699 4.03739 18.7408 4.01032C18.657 4.00355 18.5728 4.00355 18.4959 4.00355H18.461C18.3701 4.00355 18.279 4.00355 18.2021 4.01032C17.2787 4.04771 16.3553 4.25209 15.5122 4.58961C14.666 4.92681 13.9033 5.39359 13.2807 5.96934C12.6441 5.34266 11.8748 4.85879 11.0073 4.52804C10.1887 4.2147 9.28624 4.04094 8.3174 4.01032C8.23005 4.00355 8.1392 4.00355 8.05153 4.00355H7.99213C7.90477 4.00355 7.82409 4.00355 7.7577 4.01032C6.72946 4.04771 5.79557 4.22147 5.00875 4.5145C4.69363 4.627 4.39631 4.76659 4.13425 4.92004C1.89544 6.10893 0.545424 8.34422 0.503494 10.9167C0.5 10.9541 0.5 10.9983 0.5 11.0392V24H5.00493V11.1176C5.00493 11.0802 5.00493 11.046 5.00875 11.0118C5.05036 9.33228 6.21169 8.25912 7.99213 8.25912C9.51019 8.25912 10.6083 9.03248 10.9196 10.3374C10.9758 10.586 11.0038 10.8484 11.0038 11.1176V24H15.5052V23.4004C15.5087 23.4004 15.5122 23.4036 15.516 23.4036V17.0527C15.516 16.9982 15.5122 16.9334 15.5122 16.8757V11.0257C15.5122 10.9947 15.516 10.9677 15.516 10.9406C15.516 10.8519 15.523 10.7633 15.5405 10.6643C15.551 10.5553 15.5684 10.4428 15.5964 10.3339C15.6034 10.3033 15.6104 10.2691 15.6208 10.2385L15.6558 10.1637V10.1192C16.0265 8.93706 17.09 8.23172 18.5239 8.23172C19.5384 8.23172 20.3497 8.57246 20.871 9.17883L20.878 9.18915L24.9703 13.9998L23.113 16.1839L20.885 18.8041L20.8745 18.8109V18.8176C20.4895 19.2606 19.9441 19.5671 19.2726 19.6932V23.9555C20.3955 23.8669 21.4412 23.5706 22.3786 23.0732C23.1937 22.6406 23.8861 22.0681 24.4455 21.4004C24.4983 21.3492 25.1803 20.5416 25.9674 19.6081C25.9811 19.591 25.995 19.5707 26.009 19.5571C26.6494 18.7973 27.3489 17.9592 27.8349 17.3834L30.0597 20.0407C30.0877 20.0749 30.1226 20.1158 30.154 20.15C30.3186 20.3543 30.4898 20.552 30.6718 20.746C30.7592 20.845 30.8535 20.9336 30.9482 21.0287C31.039 21.1242 31.1369 21.2128 31.235 21.3015C31.2944 21.3559 31.3538 21.4104 31.4202 21.4649C31.5463 21.5774 31.6756 21.6831 31.8084 21.7853C31.8188 21.7989 31.8258 21.8056 31.8398 21.8124C31.9939 21.9317 32.1511 22.0477 32.3122 22.1599C32.4837 22.2792 32.6549 22.3882 32.8299 22.4939C33.0085 22.5996 33.1867 22.7018 33.3684 22.7972C33.4595 22.845 33.5539 22.8927 33.6412 22.9368C33.7359 22.9813 33.8337 23.0255 33.9246 23.0696C35.2466 23.6625 36.7123 23.9897 38.2408 23.9897C41.0704 23.9897 43.638 22.8688 45.4953 21.0597C46.8873 19.7035 47.8806 17.9624 48.29 16.0137C48.4263 15.3628 48.5 14.6881 48.5 13.9998C48.5 8.48736 43.8966 4 38.2408 4Z" fill="white"/>
</svg>
