<svg width="37" height="37" viewBox="0 0 37 37" fill="none" xmlns="http://www.w3.org/2000/svg">
<circle opacity="0.6" cx="18.5" cy="18.5" r="18.5" fill="black"/>
<path d="M24.8218 17.2716C24.6831 17.1935 24.5191 17.1738 24.3659 17.2167C24.2126 17.2595 24.0827 17.3615 24.0046 17.5002C23.9265 17.6389 23.9068 17.8029 23.9497 17.9561C23.9925 18.1094 24.0945 18.2393 24.2332 18.3174L26.0604 19.3458C26.4414 19.5602 26.9164 19.3082 26.9528 18.8724C26.9842 18.4944 27 18.2054 27 18C27 13.5818 23.4182 10 19 10C14.5818 10 11 13.5818 11 18C11 22.4182 14.5818 26 19 26C21.702 26 24.176 24.6494 25.6516 22.4462C25.6959 22.3807 25.7268 22.3072 25.7426 22.2297C25.7584 22.1523 25.7588 22.0725 25.7436 21.9949C25.7285 21.9173 25.6981 21.8435 25.6544 21.7777C25.6106 21.7119 25.5543 21.6554 25.4886 21.6114C25.423 21.5674 25.3492 21.5368 25.2717 21.5214C25.1942 21.506 25.1144 21.506 25.0369 21.5216C24.9594 21.5371 24.8857 21.5678 24.8201 21.6118C24.7545 21.6559 24.6983 21.7125 24.6546 21.7784C23.3996 23.6524 21.2976 24.8 19 24.8C15.2444 24.8 12.2 21.7556 12.2 18C12.2 14.2444 15.2444 11.2 19 11.2C22.6956 11.2 25.7026 14.148 25.7976 17.8208L24.8218 17.2716Z" fill="white"/>
</svg>
