<svg width="1028" height="800" viewBox="0 0 1028 800" fill="none" xmlns="http://www.w3.org/2000/svg">
<path d="M621.978 479.02C602.877 487.233 581.922 491.821 559.874 491.821C537.827 491.821 516.872 487.233 497.771 479.02C492.605 476.8 488.276 483.423 492.169 487.529C509.268 505.547 533.28 516.794 559.874 516.794C586.469 516.794 610.445 505.547 627.58 487.529C630.928 483.978 628.199 478.576 624.051 478.576C623.397 478.576 622.669 478.724 621.978 479.02Z" fill="white" fill-opacity="0.0505"/>
<path d="M419.021 821.286C407.706 811.963 407.706 794.427 419.021 785.103C457.513 753.397 506.482 734.381 559.89 734.381C613.298 734.381 662.267 753.397 700.759 785.103C712.074 794.427 712.074 811.963 700.759 821.286C662.267 852.993 613.262 872.009 559.89 872.009C506.518 872.009 457.513 852.993 419.021 821.286ZM344.585 753.249L204.225 610.515C190.873 596.937 191.237 574.554 205.389 561.901C303.474 474.034 428.044 426.049 559.926 426.049C691.809 426.049 816.379 474.034 914.464 561.901C928.616 574.591 928.943 596.974 915.628 610.515L775.268 753.249C763.481 765.236 744.562 766.605 731.61 755.913C683.15 715.993 623.194 694.276 559.963 694.276C496.732 694.276 436.775 715.956 388.315 755.913C382.421 760.796 375.254 763.164 368.123 763.164C359.537 763.164 351.024 759.761 344.585 753.249ZM731.538 40.134C744.49 29.4419 763.408 30.8108 775.195 42.8348L915.591 185.569C928.943 199.147 928.58 221.53 914.427 234.183C816.379 322.05 691.773 370.035 559.89 370.035C428.007 370.035 303.437 322.05 205.353 234.183C191.201 221.493 190.837 199.11 204.189 185.569L344.548 42.8348C356.336 30.8478 375.254 29.4789 388.206 40.134C436.666 80.0536 496.623 101.734 559.854 101.734C623.121 101.771 683.078 80.0536 731.538 40.134ZM446.307 -495.433L445.907 -495.248C367.214 -462.21 305.656 -397.354 275.933 -316.257L20.899 385.5C7.98355 415.689 0.816406 448.95 0.816406 483.949C0.816406 563.973 38.2165 635.044 96.1722 680.254C100.247 683.436 104.067 686.877 107.632 690.613C109.415 692.463 111.234 694.313 113.126 696.126L398.684 963.132C429.026 992.582 466.462 1013.37 507.21 1023.44C544.101 1032.54 582.592 1032.54 619.483 1023.44C660.266 1013.37 697.667 992.582 728.009 963.132L1013.57 696.126C1021.93 688.024 1029.39 680.217 1037.36 670.783C1038.52 669.414 1039.72 668.082 1041 666.787C1086.91 619.283 1119 556.13 1119 483.986C1119 465.487 1116.96 447.47 1113.18 430.155C1112.42 426.604 1111.32 423.089 1110.12 419.685L849.705 -316.701C820.017 -397.539 758.678 -462.21 680.276 -495.248C642.767 -511.083 602.929 -519 563.092 -519C523.399 -519 483.707 -511.157 446.307 -495.433Z" fill="white" fill-opacity="0.0505"/>
</svg>
