<svg width="12" height="12" viewBox="0 0 12 12" fill="none" xmlns="http://www.w3.org/2000/svg">
<path d="M4.05943 9.76175C4.12974 9.82537 4.20508 9.85718 4.28543 9.85718C4.37249 9.85718 4.44782 9.82537 4.51144 9.76175L8.04715 6.22604C8.11077 6.16577 8.14258 6.09044 8.14258 6.00003C8.14258 5.90963 8.11077 5.8343 8.04715 5.77403L4.51144 2.23832C4.45117 2.1747 4.37584 2.14289 4.28543 2.14289C4.19838 2.14289 4.12305 2.1747 4.05943 2.23832C3.99581 2.30193 3.96401 2.37727 3.96401 2.46432C3.96401 2.54468 3.99581 2.62001 4.05943 2.69032L7.36412 6.00003L4.05943 9.30974C3.99581 9.37336 3.96401 9.4487 3.96401 9.53575C3.96401 9.61611 3.99581 9.69144 4.05943 9.76175Z" fill="white" fill-opacity="0.6063"/>
</svg>
