<svg width="154" height="252" viewBox="0 0 154 252" fill="none" xmlns="http://www.w3.org/2000/svg">
<path d="M117.875 168.392C114.251 169.95 110.274 170.821 106.09 170.821C101.906 170.821 97.9296 169.95 94.305 168.392C93.3246 167.971 92.503 169.227 93.2418 170.007C96.4866 173.426 101.043 175.56 106.09 175.56C111.137 175.56 115.687 173.426 118.939 170.007C119.574 169.333 119.056 168.308 118.269 168.308C118.145 168.308 118.006 168.336 117.875 168.392Z" fill="white" fill-opacity="0.0505"/>
<path d="M79.3617 233.343C77.2146 231.574 77.2146 228.246 79.3617 226.477C86.6662 220.46 95.959 216.851 106.094 216.851C116.229 216.851 125.522 220.46 132.826 226.477C134.974 228.246 134.974 231.574 132.826 233.343C125.522 239.36 116.222 242.968 106.094 242.968C95.9659 242.968 86.6662 239.36 79.3617 233.343ZM65.2361 220.432L38.6004 193.345C36.0666 190.769 36.1356 186.521 38.8213 184.12C57.4345 167.446 81.0739 158.34 106.101 158.34C131.128 158.34 154.767 167.446 173.381 184.12C176.066 186.528 176.128 190.776 173.602 193.345L146.966 220.432C144.729 222.706 141.139 222.966 138.681 220.937C129.485 213.362 118.107 209.24 106.108 209.24C94.1087 209.24 82.7309 213.355 73.5347 220.937C72.4163 221.864 71.0562 222.313 69.703 222.313C68.0736 222.313 66.4581 221.667 65.2361 220.432ZM138.667 85.1055C141.125 83.0765 144.715 83.3363 146.952 85.618L173.595 112.704C176.128 115.281 176.059 119.529 173.374 121.93C154.767 138.604 131.121 147.71 106.094 147.71C81.067 147.71 57.4276 138.604 38.8144 121.93C36.1287 119.522 36.0597 115.274 38.5935 112.704L65.2292 85.618C67.4661 83.3433 71.0562 83.0835 73.514 85.1055C82.7102 92.681 94.088 96.7952 106.087 96.7952C118.093 96.8022 129.471 92.681 138.667 85.1055ZM84.5397 -16.5277L84.4638 -16.4926C69.5304 -10.2231 57.8488 2.08443 52.2082 17.474L3.81102 150.645C1.36009 156.374 0 162.685 0 169.327C0 184.513 7.09733 198 18.0954 206.58C18.8687 207.183 19.5936 207.836 20.2702 208.545C20.6085 208.896 20.9537 209.248 21.3127 209.592L75.5024 260.261C81.2603 265.849 88.3645 269.795 96.097 271.705C103.098 273.432 110.402 273.432 117.403 271.705C125.142 269.795 132.24 265.849 137.998 260.261L192.187 209.592C193.775 208.054 195.19 206.573 196.702 204.782C196.923 204.523 197.151 204.27 197.393 204.024C206.106 195.009 212.195 183.025 212.195 169.334C212.195 165.824 211.808 162.405 211.09 159.119C210.945 158.445 210.738 157.778 210.51 157.132L161.091 17.3898C155.458 2.04932 143.818 -10.2231 128.939 -16.4926C121.821 -19.4975 114.262 -21 106.702 -21C99.1693 -21 91.6371 -19.5116 84.5397 -16.5277Z" fill="white" fill-opacity="0.0505"/>
</svg>
