<svg width="24" height="24" viewBox="0 0 24 24" fill="none" xmlns="http://www.w3.org/2000/svg">
<path d="M12 24C18.6274 24 24 18.6274 24 12C24 5.37257 18.6274 0 12 0C5.37258 0 0 5.37257 0 12C0 18.6274 5.37258 24 12 24Z" fill="white" fill-opacity="0.4"/>
<path fill-rule="evenodd" clip-rule="evenodd" d="M13.9155 7.80114L13.89 7.81042L13.8993 7.80114H13.9155ZM8.01686 8.78206C9.43374 7.7509 10.747 7.80037 10.747 7.80037L10.8529 7.90472C9.11914 8.31827 8.33301 9.0928 8.33301 9.0928C8.33301 9.0928 8.54326 8.98999 8.91043 8.83308C11.2456 7.91477 13.7957 7.98125 16.1564 9.14382C16.1564 9.14382 15.3687 8.41953 13.7416 7.95574L13.8854 7.81428C14.1103 7.81505 15.3007 7.8568 16.5746 8.78824C16.5746 8.78824 18 11.2231 18 14.2146C17.9915 14.2043 17.9572 14.2397 17.894 14.305C17.6074 14.601 16.7265 15.5108 14.9614 15.5488C14.9614 15.5488 14.5965 15.136 14.3368 14.7758C15.5968 14.414 16.0683 13.6905 16.0683 13.6905C15.7688 13.8792 15.4883 14.0123 15.2401 14.1301C15.1456 14.175 15.0558 14.2176 14.9714 14.2602C14.5115 14.4626 14.0509 14.5646 13.591 14.6665L13.591 14.6665L13.5584 14.6738C11.4765 15.0116 10.2474 14.5061 9.1307 14.0468C9.05165 14.0143 8.97316 13.982 8.89497 13.9502L8.4907 13.7446C8.4907 13.7446 8.96145 14.4681 10.1712 14.8299C9.85347 15.1924 9.53887 15.6044 9.53887 15.6044C7.38533 15.5534 6.59998 14.2084 6.59998 14.2084C6.59998 11.2123 8.01686 8.78206 8.01686 8.78206ZM14.0545 13.2801C14.6041 13.2801 15.0516 12.8163 15.0516 12.2443C15.0516 11.6761 14.6064 11.2123 14.0545 11.2123V11.2146C13.5072 11.2146 13.0589 11.6769 13.0573 12.2489C13.0573 12.8163 13.5049 13.2801 14.0545 13.2801ZM11.4819 12.2443C11.4819 12.8163 11.0343 13.2801 10.4847 13.2801C9.93513 13.2801 9.48757 12.8163 9.48757 12.2489C9.48757 11.6769 9.93513 11.2146 10.4847 11.2146L10.4878 11.2123C11.0374 11.2123 11.4819 11.6761 11.4819 12.2443Z" fill="#21222B"/>
</svg>
