<svg width="16" height="17" viewBox="0 0 16 17" fill="none" xmlns="http://www.w3.org/2000/svg">
<path fill-rule="evenodd" clip-rule="evenodd" d="M10 3C10.2762 3 10.5 2.77614 10.5 2.5C10.5 2.22386 10.2762 2 10 2H6.00004C5.7239 2 5.50004 2.22386 5.50004 2.5C5.50004 2.77614 5.7239 3 6.00004 3L7.50004 3V4.5H6.33337C6.15656 4.5 5.98699 4.57024 5.86197 4.69526C5.73694 4.82029 5.66671 4.98986 5.66671 5.16667V7.45667C5.54593 7.57333 5.43448 7.69927 5.33337 7.83333H2.00004C1.82323 7.83333 1.65366 7.90357 1.52864 8.02859C1.40361 8.15362 1.33337 8.32319 1.33337 8.5V11.8333C1.33337 12.0101 1.40361 12.1797 1.52864 12.3047C1.65366 12.4298 1.82323 12.5 2.00004 12.5H6.00004C6.57703 12.9327 7.27881 13.1667 8.00004 13.1667C8.34146 13.1667 8.67852 13.1142 9.00004 13.0131C9.35773 12.9006 9.69619 12.7279 10 12.5V14.5C10 14.6768 10.0703 14.8464 10.1953 14.9714C10.3203 15.0964 10.4899 15.1667 10.6667 15.1667H14C14.1769 15.1667 14.3464 15.0964 14.4714 14.9714C14.5965 14.8464 14.6667 14.6768 14.6667 14.5V10.5C14.6667 9.79276 14.3858 9.11448 13.8857 8.61438C13.3856 8.11428 12.7073 7.83333 12 7.83333H10.6667C10.5656 7.69927 10.4541 7.57333 10.3334 7.45667V5.16667C10.3334 4.98986 10.2631 4.82029 10.1381 4.69526C10.0131 4.57024 9.84352 4.5 9.66671 4.5H8.50004V3L10 3ZM10.6667 8.83333C10.3529 8.83333 10.0573 8.68602 9.86831 8.43547C9.79864 8.34309 9.72184 8.2563 9.63861 8.1759C9.44354 7.98747 9.33337 7.72789 9.33337 7.45667V5.5H6.66671V7.45667C6.66671 7.72789 6.55654 7.98747 6.36147 8.1759C6.27825 8.2563 6.20144 8.34309 6.13176 8.43547C5.9428 8.68602 5.64719 8.83333 5.33337 8.83333H2.33337V11.5H6.00004C6.21641 11.5 6.42694 11.5702 6.60004 11.7C7.00393 12.0029 7.49518 12.1667 8.00004 12.1667C8.5049 12.1667 8.99615 12.0029 9.40004 11.7C9.70306 11.4727 10.1085 11.4362 10.4473 11.6056C10.786 11.775 11 12.1212 11 12.5V14.1667H13.6667V10.5C13.6667 10.058 13.4911 9.63405 13.1785 9.32149C12.866 9.00893 12.4421 8.83333 12 8.83333H10.6667Z" fill="white"/>
</svg>
