<svg width="24" height="24" viewBox="0 0 24 24" fill="none" xmlns="http://www.w3.org/2000/svg">
<path d="M12 24C18.6274 24 24 18.6274 24 12C24 5.37257 18.6274 0 12 0C5.37258 0 0 5.37257 0 12C0 18.6274 5.37258 24 12 24Z" fill="white" fill-opacity="0.4"/>
<path d="M16.0261 8.54125C16.4436 7.76602 15.9665 6.75226 15.9665 6.75226C14.8931 6.75226 14.1178 7.46785 14.1178 7.46785C13.7004 7.22932 12.3289 7.22932 12.3289 7.22932C12.3289 7.22932 10.9573 7.22932 10.5399 7.46785C10.5399 7.46785 9.76462 6.75226 8.69122 6.75226C8.69122 6.75226 8.21415 7.76602 8.63159 8.54125C8.63159 8.54125 7.67746 9.43576 8.03525 11.344C8.37148 13.1372 9.94351 13.6101 10.9573 13.6101C10.9573 13.6101 10.5398 13.9679 10.5995 14.5642C10.5995 14.5642 10.0031 14.922 9.40682 14.6835C8.81048 14.4449 8.51231 13.8486 8.51231 13.8486C8.51231 13.8486 7.91598 13.0734 7.31965 13.3715C7.31965 13.3715 7.14075 13.5504 7.79672 13.8486C7.79672 13.8486 8.27379 14.5642 8.45269 14.9816C8.63159 15.3991 9.58571 15.7569 10.5399 15.5183V16.8899C10.5399 16.8899 10.5399 17.0092 10.3013 17.0688C10.0628 17.1284 10.0628 17.2477 10.1821 17.2477H14.4756C14.5949 17.2477 14.5949 17.1284 14.3564 17.0688C14.1178 17.0092 14.1178 16.8899 14.1178 16.8899V15.5183C14.1178 15.5183 14.1231 14.8031 14.1178 14.5642C14.1047 13.965 13.7004 13.6101 13.7004 13.6101C14.7142 13.6101 16.2862 13.1372 16.6224 11.344C16.9802 9.43576 16.0261 8.54125 16.0261 8.54125Z" fill="#21222B"/>
</svg>
