<svg width="83" height="28" viewBox="0 0 83 28" fill="none" xmlns="http://www.w3.org/2000/svg">
<path fill-rule="evenodd" clip-rule="evenodd" d="M33.8367 11.4478L37.3347 20.4799H39.7846L36.2873 11.4478H33.8367ZM27.4087 20.4803H29.8586L33.3567 11.4482H30.9061L27.4087 20.4803ZM79.5835 11.4478H82.3642L78.7886 15.9638L82.3642 20.4799H79.5835L77.3979 17.7197L75.2123 20.4799H72.4316L76.0073 15.9638L72.4316 11.4478H75.2123L77.3979 14.2079L79.5835 11.4478ZM51.4141 11.4478H46.4163H44.3694V13.5299V15.2397V17.3218V20.4799H46.4163V17.3218H51.4141C53.0093 17.3218 54.302 16.0073 54.302 14.3851C54.302 12.7623 53.0086 11.4478 51.4141 11.4478ZM51.4141 15.2397H46.4163V13.5299H51.4141C51.8783 13.5299 52.2544 13.9124 52.2544 14.3851C52.2551 14.8565 51.8783 15.2397 51.4141 15.2397ZM68.4937 14.4393C68.4648 16.0561 67.1004 17.3212 65.5105 17.3212V17.3218H60.6086V17.6307C60.6086 18.0547 60.9466 18.3984 61.3635 18.3984H68.0959L67.3555 20.4799H60.7119C59.5244 20.4799 58.5618 19.501 58.5618 18.2934V13.2317C58.5618 12.2468 59.3475 11.4478 60.316 11.4478H65.6065C67.2194 11.4478 68.5233 12.7924 68.4937 14.4393ZM61.2353 13.5293C60.8894 13.5293 60.6086 13.8148 60.6086 14.1665V15.239H65.6065C66.0858 15.239 66.4718 14.8311 66.4462 14.3383C66.4225 13.8756 66.0142 13.5293 65.5592 13.5293H64.8214H61.2353Z" fill="#FFC412"/>
<path d="M11.2264 18.0373C10.8812 18.1858 10.5025 18.2687 10.104 18.2687C9.70558 18.2687 9.32685 18.1858 8.98165 18.0373C8.88828 17.9972 8.81003 18.1169 8.88039 18.1911C9.18942 18.5167 9.62339 18.72 10.104 18.72C10.5847 18.72 11.018 18.5167 11.3277 18.1911C11.3882 18.1269 11.3389 18.0293 11.2639 18.0293C11.2521 18.0293 11.2389 18.032 11.2264 18.0373Z" fill="#FFC412"/>
<path d="M7.55826 24.2231C7.35377 24.0546 7.35377 23.7377 7.55826 23.5692C8.25392 22.9962 9.13895 22.6525 10.1042 22.6525C11.0694 22.6525 11.9545 22.9962 12.6501 23.5692C12.8546 23.7377 12.8546 24.0546 12.6501 24.2231C11.9545 24.7962 11.0688 25.1399 10.1042 25.1399C9.13961 25.1399 8.25392 24.7962 7.55826 24.2231ZM6.21296 22.9935L3.67623 20.4138C3.43491 20.1685 3.44149 19.7639 3.69727 19.5352C5.46996 17.9472 7.72132 17.08 10.1049 17.08C12.4884 17.08 14.7398 17.9472 16.5124 19.5352C16.7682 19.7646 16.7741 20.1691 16.5335 20.4138L13.9967 22.9935C13.7837 23.2101 13.4418 23.2349 13.2077 23.0416C12.3319 22.3202 11.2483 21.9277 10.1055 21.9277C8.96273 21.9277 7.87913 22.3195 7.00331 23.0416C6.89679 23.1299 6.76725 23.1727 6.63838 23.1727C6.4832 23.1727 6.32934 23.1112 6.21296 22.9935ZM13.2064 10.1053C13.4405 9.91205 13.7824 9.93679 13.9954 10.1541L16.5328 12.7337C16.7741 12.9791 16.7676 13.3837 16.5118 13.6123C14.7398 15.2004 12.4877 16.0676 10.1042 16.0676C7.72067 16.0676 5.4693 15.2004 3.69661 13.6123C3.44083 13.383 3.43426 12.9785 3.67557 12.7337L6.2123 10.1541C6.42534 9.93746 6.76725 9.91272 7.00133 10.1053C7.87716 10.8268 8.96076 11.2186 10.1035 11.2186C11.247 11.2193 12.3306 10.8268 13.2064 10.1053ZM8.0514 0.425929L8.04417 0.429272C6.62194 1.02638 5.50941 2.19852 4.97221 3.66419L0.362954 16.3471C0.129533 16.8927 0 17.4939 0 18.1264C0 19.5727 0.675936 20.8572 1.72337 21.6742C1.79702 21.7318 1.86606 21.7939 1.9305 21.8615C1.96271 21.8949 1.99559 21.9283 2.02978 21.9611L7.1907 26.7867C7.73908 27.319 8.41567 27.6948 9.1521 27.8766C9.81883 28.0411 10.5145 28.0411 11.1812 27.8766C11.9183 27.6948 12.5942 27.319 13.1426 26.7867L18.3035 21.9611C18.4548 21.8147 18.5896 21.6736 18.7336 21.5031C18.7546 21.4783 18.7763 21.4543 18.7993 21.4309C19.6291 20.5723 20.2091 19.4309 20.2091 18.1271C20.2091 17.7927 20.1722 17.4671 20.1038 17.1542C20.09 17.09 20.0703 17.0265 20.0486 16.965L15.342 3.65617C14.8055 2.19517 13.6969 1.02638 12.2799 0.429272C11.602 0.143091 10.882 0 10.1621 0C9.4447 0 8.72734 0.141754 8.0514 0.425929Z" fill="#FFC412"/>
</svg>
