<svg width="24" height="24" viewBox="0 0 24 24" fill="none" xmlns="http://www.w3.org/2000/svg">
<path d="M12 24C18.6274 24 24 18.6274 24 12C24 5.37257 18.6274 0 12 0C5.37258 0 0 5.37257 0 12C0 18.6274 5.37258 24 12 24Z" fill="white" fill-opacity="0.4"/>
<path d="M13.0749 12.2639C13.0749 14.3978 11.3568 16.1276 9.23754 16.1276C7.11826 16.1276 5.40002 14.3978 5.40002 12.2639C5.40002 10.13 7.11813 8.40002 9.23754 8.40002C11.3569 8.40002 13.0749 10.13 13.0749 12.2639Z" fill="#21222B"/>
<path d="M17.2684 12.2573C17.2684 14.2659 16.4094 15.8948 15.3497 15.8948C14.29 15.8948 13.4309 14.2659 13.4309 12.2573C13.4309 10.2487 14.2898 8.61975 15.3495 8.61975C16.4092 8.61975 17.2683 10.2482 17.2683 12.2573" fill="#21222B"/>
<path d="M19.0015 12.2593C19.0015 14.0585 18.6994 15.5179 18.3267 15.5179C17.9539 15.5179 17.652 14.0588 17.652 12.2593C17.652 10.4597 17.9541 9.00061 18.3267 9.00061C18.6993 9.00061 19.0015 10.4595 19.0015 12.2593Z" fill="#21222B"/>
</svg>
