<svg width="84" height="68" viewBox="0 0 84 68" fill="none" xmlns="http://www.w3.org/2000/svg">
<path fill-rule="evenodd" clip-rule="evenodd" d="M17.6966 4.03089L0 35V60C0 64.4183 3.58172 68 8 68H76C80.4183 68 84 64.4183 84 60V35L66.3034 4.03089C64.879 1.53829 62.2283 0 59.3574 0H24.6426C21.7717 0 19.121 1.53829 17.6966 4.03089ZM76 65H8C5.23858 65 3 62.7614 3 60V38.5H26.1686L33.6686 50.5H50.3314L57.8314 38.5H81V60C81 62.7614 78.7614 65 76 65ZM80.8305 35.5H56.1686L48.6686 47.5H35.3314L27.8314 35.5H3.16954L20.3014 5.51931C21.1916 3.96143 22.8483 3 24.6426 3H59.3574C61.1517 3 62.8084 3.96143 63.6986 5.51931L80.8305 35.5Z" fill="white" fill-opacity="0.6063"/>
</svg>
