<svg width="146" height="187" viewBox="0 0 146 187" fill="none" xmlns="http://www.w3.org/2000/svg">
<path d="M117.876 122.392C114.252 123.95 110.275 124.821 106.091 124.821C101.907 124.821 97.9306 123.95 94.3059 122.392C93.3256 121.971 92.504 123.227 93.2427 124.007C96.4876 127.426 101.044 129.56 106.091 129.56C111.138 129.56 115.688 127.426 118.94 124.007C119.575 123.333 119.057 122.308 118.27 122.308C118.146 122.308 118.007 122.336 117.876 122.392Z" fill="white" fill-opacity="0.0505"/>
<path d="M79.3617 187.343C77.2146 185.574 77.2146 182.246 79.3617 180.477C86.6662 174.46 95.959 170.851 106.094 170.851C116.229 170.851 125.522 174.46 132.826 180.477C134.974 182.246 134.974 185.574 132.826 187.343C125.522 193.36 116.222 196.968 106.094 196.968C95.9659 196.968 86.6662 193.36 79.3617 187.343ZM65.2361 174.432L38.6004 147.345C36.0666 144.769 36.1356 140.521 38.8213 138.12C57.4345 121.446 81.0739 112.34 106.101 112.34C131.128 112.34 154.767 121.446 173.381 138.12C176.066 140.528 176.128 144.776 173.602 147.345L146.966 174.432C144.729 176.706 141.139 176.966 138.681 174.937C129.485 167.362 118.107 163.24 106.108 163.24C94.1087 163.24 82.7309 167.355 73.5347 174.937C72.4163 175.864 71.0562 176.313 69.703 176.313C68.0736 176.313 66.4581 175.667 65.2361 174.432ZM138.667 39.1055C141.125 37.0765 144.715 37.3363 146.952 39.618L173.595 66.7043C176.128 69.281 176.059 73.5285 173.374 75.9297C154.767 92.6041 131.121 101.71 106.094 101.71C81.067 101.71 57.4276 92.6041 38.8144 75.9297C36.1287 73.5215 36.0597 69.2739 38.5935 66.7043L65.2292 39.618C67.4661 37.3433 71.0562 37.0835 73.514 39.1055C82.7102 46.681 94.088 50.7952 106.087 50.7952C118.093 50.8022 129.471 46.681 138.667 39.1055ZM84.5397 -62.5277L84.4638 -62.4926C69.5304 -56.2231 57.8488 -43.9156 52.2082 -28.526L3.81102 104.645C1.36009 110.374 0 116.685 0 123.327C0 138.513 7.09733 152 18.0954 160.58C18.8687 161.183 19.5936 161.836 20.2702 162.545C20.6085 162.896 20.9537 163.248 21.3127 163.592L75.5024 214.261C81.2603 219.849 88.3645 223.795 96.097 225.705C103.098 227.432 110.402 227.432 117.403 225.705C125.142 223.795 132.24 219.849 137.998 214.261L192.187 163.592C193.775 162.054 195.19 160.573 196.702 158.782C196.923 158.523 197.151 158.27 197.393 158.024C206.106 149.009 212.195 137.025 212.195 123.334C212.195 119.824 211.808 116.405 211.09 113.119C210.945 112.445 210.738 111.778 210.51 111.132L161.091 -28.6102C155.458 -43.9507 143.818 -56.2231 128.939 -62.4926C121.821 -65.4975 114.262 -67 106.702 -67C99.1693 -67 91.6371 -65.5116 84.5397 -62.5277Z" fill="white" fill-opacity="0.0505"/>
</svg>
