<svg width="14" height="14" viewBox="0 0 14 14" fill="none" xmlns="http://www.w3.org/2000/svg">
<path d="M7.875 2.625C8.50732 2.625 9.09009 2.78223 9.62329 3.09668C10.1599 3.41113 10.5854 3.83667 10.8999 4.37329C11.2144 4.90649 11.3716 5.48926 11.3716 6.12158C11.3716 6.75391 11.2144 7.33838 10.8999 7.875C10.5854 8.41162 10.1599 8.83716 9.62329 9.15161C9.09009 9.46606 8.50732 9.62329 7.875 9.62329C7.47852 9.62329 7.09741 9.56006 6.73169 9.43359C6.36597 9.30371 6.03101 9.12085 5.72681 8.88501L3.36841 11.2434C3.28638 11.3289 3.18384 11.3716 3.06079 11.3716C2.93774 11.3716 2.83521 11.3289 2.75317 11.2434C2.66772 11.158 2.625 11.0554 2.625 10.9358C2.625 10.8127 2.66772 10.7102 2.75317 10.6282L5.11157 8.26978C4.87573 7.96558 4.69287 7.63062 4.56299 7.26489C4.43652 6.89917 4.37329 6.51807 4.37329 6.12158C4.37329 5.48926 4.53052 4.90649 4.84497 4.37329C5.15942 3.83667 5.58496 3.41113 6.12158 3.09668C6.6582 2.78223 7.24268 2.625 7.875 2.625ZM7.875 8.74658C8.3501 8.74658 8.7876 8.62866 9.1875 8.39282C9.59082 8.15698 9.9104 7.83911 10.1462 7.43921C10.3821 7.03589 10.5 6.59668 10.5 6.12158C10.5 5.64648 10.3821 5.20898 10.1462 4.80908C9.9104 4.40576 9.59082 4.08618 9.1875 3.85034C8.7876 3.6145 8.3501 3.49658 7.875 3.49658C7.3999 3.49658 6.96069 3.6145 6.55737 3.85034C6.15747 4.08618 5.8396 4.40576 5.60376 4.80908C5.36792 5.20898 5.25 5.64648 5.25 6.12158C5.25 6.59668 5.36792 7.03589 5.60376 7.43921C5.8396 7.83911 6.15747 8.15698 6.55737 8.39282C6.96069 8.62866 7.3999 8.74658 7.875 8.74658Z" fill="white"/>
</svg>
