<svg width="500" height="572" viewBox="0 0 500 572" fill="none" xmlns="http://www.w3.org/2000/svg">
<path d="M233.74 13.8451C238.409 -2.51324 261.592 -2.51327 266.26 13.8451L307.986 160.052C310.7 169.562 320.47 175.202 330.062 172.798L477.544 135.83C494.045 131.693 505.636 151.771 493.804 163.993L388.048 273.232C381.169 280.337 381.169 291.618 388.048 298.723L493.804 407.962C505.636 420.184 494.045 440.261 477.544 436.125L330.062 399.157C320.47 396.752 310.7 402.393 307.986 411.902L266.26 558.109C261.592 574.468 238.409 574.468 233.74 558.109L192.015 411.902C189.301 402.393 179.531 396.752 169.939 399.157L22.4571 436.125C5.95609 440.261 -5.63544 420.184 6.1971 407.962L111.953 298.723C118.832 291.618 118.832 280.337 111.953 273.232L6.19712 163.993C-5.63542 151.771 5.95608 131.693 22.4571 135.83L169.939 172.798C179.531 175.202 189.301 169.562 192.015 160.052L233.74 13.8451Z" stroke="white" strokeOpacity="0.3628" strokeWidth="1.4151"/>
</svg>
