<svg width="24" height="24" viewBox="0 0 24 24" fill="none" xmlns="http://www.w3.org/2000/svg">
<path fill-rule="evenodd" clip-rule="evenodd" d="M12 2.75C6.89137 2.75 2.75 6.89137 2.75 12C2.75 17.1086 6.89137 21.25 12 21.25C16.1407 21.25 19.6478 18.5288 20.8267 14.7753C20.9508 14.3801 21.3718 14.1603 21.7669 14.2845C22.1621 14.4086 22.3819 14.8296 22.2577 15.2247C20.8881 19.5854 16.8146 22.75 12 22.75C6.06294 22.75 1.25 17.9371 1.25 12C1.25 6.06294 6.06294 1.25 12 1.25C13.1743 1.25 14.3061 1.43857 15.3658 1.78765C15.7592 1.91725 15.9731 2.34123 15.8435 2.73465C15.7139 3.12807 15.2899 3.34194 14.8965 3.21235C13.9863 2.91253 13.0129 2.75 12 2.75Z" fill="#06C270"/>
</svg>
