<svg width="22" height="22" viewBox="0 0 22 22" fill="none" xmlns="http://www.w3.org/2000/svg">
<path d="M10.8389 11.6445C11.3223 11.6445 11.6445 11.3223 11.6445 10.8389V6.32715C11.6445 5.84375 11.3223 5.52148 10.8389 5.52148C10.3555 5.52148 10.0332 5.84375 10.0332 6.32715V10.8389C10.1943 11.3223 10.5166 11.6445 10.8389 11.6445ZM10.8389 15.834C11.4834 15.834 11.9668 15.3506 11.9668 14.7061C11.9668 14.0615 11.4834 13.5781 10.8389 13.5781C10.1943 13.5781 9.71094 14.0615 9.71094 14.7061C9.87207 15.3506 10.3555 15.834 10.8389 15.834ZM11 1.33203C5.68262 1.33203 1.33203 5.68262 1.33203 11C1.33203 16.3174 5.68262 20.668 11 20.668C16.3174 20.668 20.668 16.3174 20.668 11C20.668 5.68262 16.3174 1.33203 11 1.33203ZM16.8008 16.8008C15.9951 17.6064 15.1895 18.0898 14.2227 18.5732C13.2559 19.0566 12.1279 19.2178 11 19.2178C9.87207 19.2178 8.74414 19.0566 7.77734 18.5732C6.81055 18.0898 5.84375 17.6064 5.19922 16.8008C4.39355 15.9951 3.91016 15.1895 3.42676 14.2227C2.94336 13.2559 2.78223 12.1279 2.78223 11C2.78223 9.87207 2.94336 8.74414 3.42676 7.77734C3.91016 6.81055 4.39355 5.84375 5.19922 5.19922C6.00488 4.39355 6.81055 3.91016 7.77734 3.42676C8.74414 2.94336 9.87207 2.78223 11 2.78223C12.1279 2.78223 13.2559 2.94336 14.2227 3.42676C15.1895 3.91016 16.1562 4.39355 16.8008 5.19922C17.6064 6.00488 18.0898 6.81055 18.5732 7.77734C19.0566 8.74414 19.2178 9.87207 19.2178 11C19.2178 12.1279 19.0566 13.2559 18.5732 14.2227C18.251 15.1895 17.6064 16.1562 16.8008 16.8008Z" fill="#299FF4"/>
</svg>
