<svg width="24" height="24" viewBox="0 0 24 24" fill="none" xmlns="http://www.w3.org/2000/svg">
<path d="M12 24C18.6274 24 24 18.6274 24 12C24 5.37257 18.6274 0 12 0C5.37258 0 0 5.37257 0 12C0 18.6274 5.37258 24 12 24Z" fill="white" fill-opacity="0.4"/>
<path d="M16.8416 9.58425C16.8472 9.68866 16.8472 9.79306 16.8472 9.89747C16.8472 13.0994 14.4911 16.8002 10.1874 16.8002C8.86666 16.8002 7.63544 16.4 6.6001 15.7097C6.78478 15.7329 6.96946 15.7445 7.15974 15.7445C8.25665 15.7445 9.26401 15.3558 10.0643 14.7062C9.04015 14.6888 8.1783 13.9869 7.87609 13.024C8.016 13.053 8.1671 13.0704 8.31821 13.0704C8.53088 13.0704 8.73795 13.0414 8.93382 12.9834C7.8649 12.763 7.059 11.7827 7.059 10.6051C7.059 10.5935 7.059 10.582 7.059 10.5762C7.37241 10.756 7.73618 10.8662 8.11674 10.8778C7.48993 10.4427 7.07579 9.70027 7.07579 8.85918C7.07579 8.41253 7.19332 8.00068 7.3948 7.64105C8.54767 9.1086 10.2714 10.0715 12.2189 10.1759C12.1798 9.99609 12.1574 9.81046 12.1574 9.62484C12.1574 8.2849 13.2039 7.2002 14.4967 7.2002C15.1683 7.2002 15.7783 7.49603 16.2036 7.96588C16.7353 7.85567 17.239 7.65264 17.6867 7.38001C17.5132 7.94847 17.1382 8.41832 16.6569 8.71995C17.1326 8.66195 17.5804 8.52853 18.0001 8.33711C17.6923 8.81276 17.295 9.24202 16.8416 9.58425Z" fill="#21222B"/>
</svg>
