<svg width="24" height="24" viewBox="0 0 24 24" fill="none" xmlns="http://www.w3.org/2000/svg">
<path d="M5.08395 7.79846C8.89495 4.06718 15.0738 4.06718 18.8848 7.79846L19.3435 8.24753C19.534 8.43409 19.534 8.73658 19.3435 8.92314L17.7745 10.4593C17.6792 10.5526 17.5247 10.5526 17.4294 10.4593L16.7983 9.84134C14.1396 7.2383 9.82911 7.2383 7.17046 9.84134L6.49453 10.5031C6.39926 10.5964 6.24478 10.5964 6.14951 10.5031L4.58053 8.96696C4.38998 8.7804 4.38998 8.47792 4.58053 8.29136L5.08395 7.79846ZM22.1296 10.9754L23.526 12.3426C23.7165 12.5292 23.7166 12.8317 23.526 13.0182L17.2295 19.1831C17.039 19.3696 16.7301 19.3696 16.5395 19.1831C16.5395 19.1831 16.5395 19.1831 16.5395 19.1831L12.0707 14.8077C12.023 14.7611 11.9458 14.7611 11.8981 14.8077L11.8981 14.8077L7.4294 19.1831C7.23885 19.3696 6.92991 19.3696 6.73935 19.1831C6.73935 19.1831 6.73935 19.1831 6.73935 19.1831L0.442717 13.0181C0.252167 12.8316 0.252167 12.5291 0.442717 12.3425L1.83912 10.9753C2.02967 10.7888 2.33861 10.7888 2.52916 10.9753L6.99807 15.3508C7.04571 15.3974 7.12294 15.3974 7.17058 15.3508C7.17058 15.3508 7.17058 15.3508 7.17058 15.3508L11.6393 10.9753C11.8298 10.7888 12.1388 10.7888 12.3293 10.9753C12.3293 10.9753 12.3293 10.9753 12.3293 10.9753L16.7982 15.3508C16.8459 15.3974 16.9231 15.3974 16.9707 15.3508L21.4396 10.9754C21.6301 10.7889 21.9391 10.7889 22.1296 10.9754Z" fill="#3B99FC"/>
</svg>
