<svg width="24" height="24" viewBox="0 0 24 24" fill="none" xmlns="http://www.w3.org/2000/svg">
<path d="M20.41 2.90472L13.1099 8.32661L14.4598 5.12777L20.41 2.90472Z" fill="#E2761B" stroke="#E2761B" strokeLinecap="round" strokeLinejoin="round"/>
<path d="M3.55713 2.90472L10.7985 8.37797L9.5146 5.12777L3.55713 2.90472Z" fill="#E4761B" stroke="#E4761B" strokeLinecap="round" strokeLinejoin="round"/>
<path d="M17.7831 15.4727L15.8389 18.4514L19.9988 19.5959L21.1947 15.5387L17.7831 15.4727Z" fill="#E4761B" stroke="#E4761B" strokeLinecap="round" strokeLinejoin="round"/>
<path d="M2.78662 15.5387L3.97518 19.5959L8.13514 18.4514L6.19089 15.4727L2.78662 15.5387Z" fill="#E4761B" stroke="#E4761B" strokeLinecap="round" strokeLinejoin="round"/>
<path d="M7.90042 10.4398L6.74121 12.1933L10.8718 12.3767L10.7251 7.93793L7.90042 10.4398Z" fill="#E4761B" stroke="#E4761B" strokeLinecap="round" strokeLinejoin="round"/>
<path d="M16.0666 10.4397L13.2052 7.88654L13.1099 12.3767L17.2331 12.1932L16.0666 10.4397Z" fill="#E4761B" stroke="#E4761B" strokeLinecap="round" strokeLinejoin="round"/>
<path d="M8.13525 18.4513L10.6151 17.2407L8.47275 15.5679L8.13525 18.4513Z" fill="#E4761B" stroke="#E4761B" strokeLinecap="round" strokeLinejoin="round"/>
<path d="M13.3521 17.2407L15.8392 18.4513L15.4944 15.5679L13.3521 17.2407Z" fill="#E4761B" stroke="#E4761B" strokeLinecap="round" strokeLinejoin="round"/>
<path d="M15.8392 18.451L13.3521 17.2404L13.5501 18.8618L13.5281 19.5442L15.8392 18.451Z" fill="#D7C1B3" stroke="#D7C1B3" strokeLinecap="round" strokeLinejoin="round"/>
<path d="M8.13525 18.451L10.4463 19.5442L10.4317 18.8618L10.6151 17.2404L8.13525 18.451Z" fill="#D7C1B3" stroke="#D7C1B3" strokeLinecap="round" strokeLinejoin="round"/>
<path d="M10.4835 14.4966L8.41455 13.8877L9.87457 13.22L10.4835 14.4966Z" fill="#233447" stroke="#233447" strokeLinecap="round" strokeLinejoin="round"/>
<path d="M13.4844 14.4966L14.0933 13.22L15.5607 13.8877L13.4844 14.4966Z" fill="#233447" stroke="#233447" strokeLinecap="round" strokeLinejoin="round"/>
<path d="M8.13517 18.4514L8.48733 15.4727L6.19092 15.5387L8.13517 18.4514Z" fill="#CD6116" stroke="#CD6116" strokeLinecap="round" strokeLinejoin="round"/>
<path d="M15.4873 15.4727L15.8395 18.4514L17.7837 15.5387L15.4873 15.4727Z" fill="#CD6116" stroke="#CD6116" strokeLinecap="round" strokeLinejoin="round"/>
<path d="M17.2326 12.1929L13.1094 12.3764L13.4909 14.4967L14.0998 13.2201L15.5672 13.8877L17.2326 12.1929Z" fill="#CD6116" stroke="#CD6116" strokeLinecap="round" strokeLinejoin="round"/>
<path d="M8.414 13.8877L9.88136 13.2201L10.483 14.4967L10.8718 12.3764L6.74121 12.1929L8.414 13.8877Z" fill="#CD6116" stroke="#CD6116" strokeLinecap="round" strokeLinejoin="round"/>
<path d="M6.74121 12.1929L8.47269 15.5679L8.414 13.8877L6.74121 12.1929Z" fill="#E4751F" stroke="#E4751F" strokeLinecap="round" strokeLinejoin="round"/>
<path d="M15.567 13.8877L15.4937 15.5679L17.2325 12.1929L15.567 13.8877Z" fill="#E4751F" stroke="#E4751F" strokeLinecap="round" strokeLinejoin="round"/>
<path d="M10.8718 12.3762L10.4829 14.4965L10.9671 16.9983L11.0772 13.7041L10.8718 12.3762Z" fill="#E4751F" stroke="#E4751F" strokeLinecap="round" strokeLinejoin="round"/>
<path d="M13.1097 12.3762L12.9116 13.6968L12.9997 16.9983L13.4912 14.4965L13.1097 12.3762Z" fill="#E4751F" stroke="#E4751F" strokeLinecap="round" strokeLinejoin="round"/>
<path d="M13.4911 14.4965L12.9995 16.9984L13.3517 17.2405L15.494 15.5677L15.5674 13.8876L13.4911 14.4965Z" fill="#F6851B" stroke="#F6851B" strokeLinecap="round" strokeLinejoin="round"/>
<path d="M8.41455 13.8876L8.47325 15.5677L10.6156 17.2405L10.9677 16.9984L10.4835 14.4965L8.41455 13.8876Z" fill="#F6851B" stroke="#F6851B" strokeLinecap="round" strokeLinejoin="round"/>
<path d="M13.5278 19.5444L13.5498 18.862L13.3664 18.7006H10.6004L10.4317 18.862L10.4463 19.5444L8.13525 18.4512L8.9423 19.1115L10.5784 20.2487H13.3884L15.0318 19.1115L15.8389 18.4512L13.5278 19.5444Z" fill="#C0AD9E" stroke="#C0AD9E" strokeLinecap="round" strokeLinejoin="round"/>
<path d="M13.3522 17.2406L13 16.9985H10.9677L10.6155 17.2406L10.4321 18.862L10.6009 18.7006H13.3668L13.5503 18.862L13.3522 17.2406Z" fill="#161616" stroke="#161616" strokeLinecap="round" strokeLinejoin="round"/>
<path d="M20.7182 8.67878L21.3418 5.68537L20.41 2.90472L13.3521 8.14319L16.0667 10.4396L19.9038 11.5621L20.7549 10.5717L20.388 10.3075L20.975 9.77196L20.5201 9.41979L21.107 8.97225L20.7182 8.67878Z" fill="#763D16" stroke="#763D16" strokeLinecap="round" strokeLinejoin="round"/>
<path d="M2.63281 5.68537L3.25644 8.67878L2.86025 8.97225L3.4472 9.41979L2.99965 9.77196L3.58659 10.3075L3.21976 10.5717L4.06349 11.5621L7.90063 10.4396L10.6152 8.14319L3.55725 2.90472L2.63281 5.68537Z" fill="#763D16" stroke="#763D16" strokeLinecap="round" strokeLinejoin="round"/>
<path d="M19.904 11.562L16.0669 10.4395L17.2334 12.1929L15.4946 15.5679L17.7837 15.5385H21.1953L19.904 11.562Z" fill="#F6851B" stroke="#F6851B" strokeLinecap="round" strokeLinejoin="round"/>
<path d="M7.90036 10.4395L4.06322 11.562L2.78662 15.5385H6.19089L8.47263 15.5679L6.74115 12.1929L7.90036 10.4395Z" fill="#F6851B" stroke="#F6851B" strokeLinecap="round" strokeLinejoin="round"/>
<path d="M13.1102 12.3765L13.3523 8.14322L14.4675 5.12781H9.51514L10.6157 8.14322L10.8724 12.3765L10.9605 13.7118L10.9678 16.9987H13.0001L13.0148 13.7118L13.1102 12.3765Z" fill="#F6851B" stroke="#F6851B" strokeLinecap="round" strokeLinejoin="round"/>
</svg>
