<svg width="16" height="17" viewBox="0 0 16 17" fill="none" xmlns="http://www.w3.org/2000/svg">
<path d="M9.92785 7.83108L11.1029 5.8373L14.27 10.7703L14.2715 11.7169L14.2612 5.20253C14.2537 5.04329 14.1691 4.89761 14.0342 4.81171L8.33219 1.5318C8.19882 1.46626 8.02965 1.46695 7.89653 1.53384C7.87855 1.54287 7.86162 1.55266 7.84548 1.56333L7.82562 1.57584L2.29085 4.78321L2.26935 4.79294C2.24175 4.80565 2.21384 4.82179 2.18762 4.84056C2.08271 4.91583 2.01299 5.02711 1.99045 5.15193C1.98707 5.17085 1.98459 5.19012 1.9834 5.20953L1.99209 10.5181L4.94215 5.94569C5.31356 5.33938 6.12281 5.14409 6.87401 5.15471L7.75571 5.178L2.56077 13.5092L3.17314 13.8618L8.43035 5.18644L10.754 5.178L5.51038 14.0723L7.69553 15.3291L7.95661 15.4793C8.06704 15.5241 8.19723 15.5264 8.3086 15.4862L14.0908 12.1353L12.9853 12.7759L9.92785 7.83108ZM10.3762 14.288L8.16912 10.824L9.51637 8.5379L12.4149 13.1065L10.3762 14.288Z" fill="#2D374B"/>
<path d="M8.16895 10.824L10.376 14.2879L12.4148 13.1064L9.51624 8.53784L8.16895 10.824Z" fill="#28A0F0"/>
<path d="M14.2724 11.7168L14.2709 10.7701L11.1038 5.83716L9.92871 7.83094L12.9862 12.7758L14.0917 12.1352C14.2001 12.0472 14.2657 11.9179 14.2726 11.7784L14.2724 11.7168Z" fill="#28A0F0"/>
<path d="M1.00005 12.6097L2.56115 13.5092L7.7561 5.17799L6.8744 5.1547C6.12319 5.14408 5.31399 5.33937 4.94253 5.94568L1.99247 10.5181L1 12.043V12.6097H1.00005Z" fill="white"/>
<path d="M10.7547 5.17847L8.43104 5.18691L3.17383 13.8623L5.01136 14.9203L5.51107 14.0727L10.7547 5.17847Z" fill="white"/>
<path d="M15.2521 5.16601C15.2327 4.68005 14.9696 4.23516 14.5574 3.97616L8.78063 0.6541C8.37292 0.448783 7.86358 0.448534 7.45523 0.65395C7.40696 0.678281 1.83739 3.90844 1.83739 3.90844C1.76033 3.94538 1.68609 3.98942 1.61623 4.03937C1.2483 4.30308 1.02402 4.71282 1.00098 5.16303V12.0431L1.99345 10.5182L1.98476 5.20955C1.98595 5.19014 1.98838 5.17107 1.99181 5.1522C2.0142 5.02728 2.08397 4.91585 2.18898 4.84058C2.2152 4.82181 7.87986 1.5429 7.89789 1.53386C8.03106 1.46698 8.20023 1.46628 8.33355 1.53182L14.0356 4.81173C14.1705 4.89763 14.2551 5.04331 14.2626 5.20255V11.7786C14.2557 11.9181 14.2005 12.0473 14.0921 12.1354L12.9866 12.7759L12.4163 13.1065L10.3775 14.288L8.30991 15.4862C8.19854 15.5264 8.06835 15.5242 7.95792 15.4793L5.51169 14.0723L5.01198 14.9198L7.21034 16.1855C7.28303 16.2268 7.34783 16.2635 7.40096 16.2933C7.48328 16.3395 7.53934 16.3704 7.55915 16.3799C7.71541 16.4558 7.94019 16.5 8.14278 16.5C8.32853 16.5 8.50962 16.4659 8.68102 16.3988L14.6864 12.9209C15.031 12.6538 15.2338 12.2511 15.2521 11.8148V5.16601Z" fill="#96BEDC"/>
</svg>
