<svg width="9" height="8" viewBox="0 0 9 8" fill="none" xmlns="http://www.w3.org/2000/svg">
<g clip-path="url(#clip0_8180_6580)">
<path d="M4.13208 6.66675H7.13208" stroke="white" strokeWidth="0.4" stroke-linecap="round" stroke-linejoin="round"/>
<path d="M5.63208 1.16682C5.76469 1.03422 5.94454 0.959717 6.13208 0.959717C6.22494 0.959717 6.31689 0.978007 6.40268 1.01354C6.48847 1.04908 6.56642 1.10116 6.63208 1.16682C6.69774 1.23248 6.74982 1.31044 6.78536 1.39623C6.8209 1.48202 6.83919 1.57396 6.83919 1.66682C6.83919 1.75968 6.8209 1.85163 6.78536 1.93742C6.74982 2.02321 6.69774 2.10116 6.63208 2.16682L2.46541 6.33349L1.13208 6.66682L1.46541 5.33349L5.63208 1.16682Z" stroke="white" strokeWidth="0.4" stroke-linecap="round" stroke-linejoin="round"/>
</g>
<defs>
<clipPath id="clip0_8180_6580">
<rect width="8" height="8" fill="white" transform="translate(0.13208)"/>
</clipPath>
</defs>
</svg>
