<svg width="24" height="24" viewBox="0 0 24 24" fill="none" xmlns="http://www.w3.org/2000/svg">
<path fill-rule="evenodd" clip-rule="evenodd" d="M12 24C18.6274 24 24 18.6274 24 12C24 5.37258 18.6274 0 12 0C5.37258 0 0 5.37258 0 12C0 18.6274 5.37258 24 12 24ZM11.8685 18.2401C12.1982 18.2423 12.516 18.1173 12.7558 17.891V17.9055C12.8776 17.7893 12.974 17.6493 13.0391 17.4941C13.1041 17.3389 13.1365 17.172 13.134 17.0037C13.1407 16.8405 13.1116 16.6778 13.0488 16.5271C12.986 16.3763 12.8909 16.2411 12.7704 16.131C12.6517 16.0145 12.5105 15.9234 12.3555 15.8634C12.2004 15.8034 12.0347 15.7756 11.8685 15.7819C11.7047 15.7768 11.5415 15.8051 11.389 15.8651C11.2364 15.9251 11.0977 16.0156 10.9813 16.131C10.8607 16.2411 10.7657 16.3763 10.7028 16.5271C10.64 16.6778 10.6109 16.8405 10.6176 17.0037C10.6156 17.1663 10.6467 17.3276 10.7093 17.4776C10.7718 17.6277 10.8644 17.7634 10.9813 17.8764C11.0965 17.9944 11.2346 18.0876 11.3873 18.1501C11.5399 18.2127 11.7036 18.2433 11.8685 18.2401ZM13.774 12.5382C14.2836 12.1199 14.7692 11.6731 15.2285 11.2001V11.2146C15.6957 10.6225 15.9471 9.88882 15.9413 9.13461C15.9651 8.67358 15.8846 8.21312 15.7058 7.78751C15.527 7.3619 15.2545 6.98212 14.9085 6.67643C14.1369 6.05993 13.1581 5.76315 12.174 5.84734C11.6288 5.81601 11.083 5.89664 10.5702 6.08426C10.0574 6.27188 9.58841 6.56251 9.19217 6.93825C8.82743 7.32658 8.54424 7.78411 8.35937 8.28378C8.17449 8.78345 8.09167 9.31511 8.11581 9.84734H9.86127C9.82726 9.23087 9.99028 8.61957 10.3267 8.10188C10.5209 7.8478 10.7759 7.64668 11.0682 7.51704C11.3605 7.3874 11.6808 7.33342 11.9994 7.36006C12.2636 7.34328 12.5285 7.3797 12.7783 7.46714C13.0282 7.55459 13.2579 7.69129 13.454 7.86915C13.8007 8.22934 13.9982 8.70746 14.0067 9.20734C13.9935 9.66674 13.8242 10.108 13.5267 10.4582L13.2358 10.7782C12.4823 11.3859 11.8337 12.1132 11.3158 12.931C11.0663 13.4367 10.9463 13.9965 10.9667 14.5601V14.851H12.7849V14.5601C12.7778 14.1644 12.873 13.7736 13.0613 13.4255C13.2317 13.0816 13.4749 12.7788 13.774 12.5382Z" fill="#A2A8B2"/>
<circle cx="12" cy="12" r="11.5" stroke="#CED4DD"/>
</svg>
